# xmcd
#
# Track frame offsets:
# 150
# 11449
# 24887
# 36168
# 46587
# 57479
# 69374
# 80852
# 95762
# 106763
# 119081
# 134614
# 145024
# 161509
# 171897
# 183793
#
# Disc length: 2588 seconds
#
#
# Revision: 2
# Processed by: cddbd v1.5.2PL0 Copyright (c) Steve Scherf et al.
# Submitted via: FreeRIP 2.951 
#
DISCID=d20a1a10
DTITLE=Yardbirds (The) - Heart Full Of Soul
DYEAR=1900
DGENRE=
TTITLE0=Yardbirds (The) - Heart Full Of Soul
TTITLE1=Yardbirds (The) - Still I'm Sad
TTITLE2=Yardbirds (The) - For Your Love
TTITLE3=Yardbirds (The) - Putty
TTITLE4=Yardbirds (The) - Evil Hearted You
TTITLE5=Yardbirds (The) - I'm A Man
TTITLE6=Yardbirds (The) - I'm Not Talking
TTITLE7=Yardbirds (The) - You're A Better Man Than I
TTITLE8=Yardbirds (The) - Shapes Of Things
TTITLE9=Yardbirds (The) - Goodnight Sweet Josephine
TTITLE10=Yardbirds (The) - The Train Kept A-Rollin'
TTITLE11=Yardbirds (The) - I Wish You Would
TTITLE12=Yardbirds (The) - I Ain't Done Wrong
TTITLE13=Yardbirds (The) - A Certain Girl
TTITLE14=Yardbirds (The) - Got To Hurry
TTITLE15=Yardbirds (The) - Honey In Your Hips
EXTD=
EXTT0=
EXTT1=
EXTT2=
EXTT3=
EXTT4=
EXTT5=
EXTT6=
EXTT7=
EXTT8=
EXTT9=
EXTT10=
EXTT11=
EXTT12=
EXTT13=
EXTT14=
EXTT15=
PLAYORDER=
